<svg width="24" height="25" viewBox="0 0 24 25" fill="none" xmlns="http://www.w3.org/2000/svg">
<path d="M12.0012 0.80249C5.54043 0.80249 0.302338 6.04058 0.302338 12.5013C0.302338 18.3396 4.57986 23.1787 10.1736 24.0597L10.1736 15.8838H7.20183L7.20183 12.5013H10.1736L10.1736 9.92381C10.1736 6.98945 11.9204 5.37134 14.5915 5.37134C15.8715 5.37134 17.2123 5.59949 17.2123 5.59949L17.2123 8.47652H15.7335C14.2827 8.47652 13.8287 9.37976 13.8287 10.3052L13.8287 12.499H17.0708L16.5525 15.8815H13.8287L13.8287 24.0574C19.4225 23.1811 23.7 18.3408 23.7 12.5013C23.7 6.04058 18.4619 0.80249 12.0012 0.80249Z" fill="#323842"/>
</svg>
