<svg width="22" height="23" viewBox="0 0 22 23" fill="none" xmlns="http://www.w3.org/2000/svg">
<path d="M21.1 0.300049L1.89499 0.300049C1.01499 0.300049 0.299988 1.02505 0.299988 1.91505L0.299988 21.085C0.299988 21.975 1.01499 22.7 1.89499 22.7L21.1 22.7C21.98 22.7 22.7 21.975 22.7 21.085L22.7 1.91505C22.7 1.02505 21.98 0.300049 21.1 0.300049ZM7.06999 19.5H3.74999L3.74999 8.81005L7.07499 8.81005L7.07499 19.5H7.06999ZM5.40999 7.35005C4.34499 7.35005 3.48499 6.48505 3.48499 5.42505C3.48499 4.36505 4.34499 3.50005 5.40999 3.50005C6.46999 3.50005 7.33499 4.36505 7.33499 5.42505C7.33499 6.49005 6.47499 7.35005 5.40999 7.35005ZM19.515 19.5H16.195L16.195 14.3C16.195 13.06 16.17 11.465 14.47 11.465C12.74 11.465 12.475 12.815 12.475 14.21L12.475 19.5H9.15499L9.15499 8.81005L12.34 8.81005V10.27H12.385C12.83 9.43005 13.915 8.54505 15.53 8.54505C18.89 8.54505 19.515 10.76 19.515 13.64V19.5Z" fill="#323842"/>
</svg>
